<svg xmlns="http://www.w3.org/2000/svg" viewBox="0 0 64 64" aria-hidden="true" focusable="false">
  <defs>
    <linearGradient id="grad" x1="0%" y1="0%" x2="100%" y2="100%">
      <stop offset="0%" stop-color="#6d28d9"/>
      <stop offset="100%" stop-color="#2563eb"/>
    </linearGradient>
  </defs>
  <rect width="64" height="64" rx="14" fill="url(#grad)"/>
  <path d="M18 26c0-5 4-9 9-9h10c5 0 9 4 9 9v2h3a1 1 0 011 1v16a1 1 0 01-1 1H15a1 1 0 01-1-1V29a1 1 0 011-1h3zm4 0v2h20v-2a5 5 0 00-5-5H27a5 5 0 00-5 5zm-5 6v14h30V32z" fill="#ffffff"/>
</svg>
